 <svg
    xmlns="http://www.w3.org/2000/svg"
    viewBox="0 0 56 56"
    fill="currentColor"
  >
    <g clip-path="url(#clip0_5_1412)">
      <path
        d="M44.4285 45.1432C39.8494 49.7223 33.7611 52.2442 27.2853 52.2442H0.875C0.391781 52.2442 0 51.8524 0 51.3692C0 50.886 0.391781 50.4942 0.875 50.4942H27.2853C39.6887 50.4942 49.7795 40.4034 49.7795 28C49.7795 16.6168 41.1199 7.05319 30.0462 5.6767L32.6335 7.69719C33.0143 7.99458 33.082 8.54451 32.7845 8.92536C32.6119 9.1463 32.3544 9.26191 32.0942 9.26191C31.9059 9.26191 31.7162 9.20142 31.5563 9.07652L26.7468 5.32069C26.5345 5.15487 26.4103 4.90047 26.4103 4.63108C26.4103 4.36169 26.5345 4.10728 26.7468 3.94147L31.5563 0.18564C31.9371 -0.111751 32.4871 -0.0441574 32.7845 0.336686C33.0819 0.71753 33.0143 1.26747 32.6335 1.56486L29.6772 3.87355C35.3268 4.42469 40.5627 6.91898 44.5843 11.0142C49.063 15.5748 51.5295 21.6073 51.5295 28.0003C51.5294 34.4759 49.0077 40.5642 44.4285 45.1432ZM11.8374 46.6861C12.0006 46.8212 12.1983 46.887 12.3948 46.887C12.6465 46.887 12.8963 46.779 13.0693 46.5699C13.3774 46.1976 13.3254 45.646 12.9531 45.3379C7.76606 41.0451 4.79117 34.7257 4.79117 28C4.79117 17.7982 11.6706 8.8547 21.521 6.25103C21.9881 6.12755 22.2668 5.6487 22.1433 5.18145C22.0197 4.7142 21.5408 4.43562 21.0737 4.55911C10.4565 7.36556 3.04117 17.0048 3.04117 28C3.04117 35.2489 6.24728 42.0596 11.8374 46.6861ZM55.6636 50.6795L50.854 46.9237C50.4732 46.6263 49.9235 46.6939 49.6258 47.0747C49.3285 47.4555 49.396 48.0055 49.7769 48.3029L52.5829 50.4941H42.9715C42.4882 50.4941 42.0965 50.8859 42.0965 51.3691C42.0965 51.8523 42.4882 52.2441 42.9715 52.2441H52.5829L49.7769 54.4353C49.396 54.7327 49.3283 55.2826 49.6258 55.6635C49.7984 55.8844 50.0559 56 50.3161 56C50.5045 56 50.6942 55.9394 50.854 55.8146L55.6636 52.0588C55.8759 51.893 56 51.6386 56 51.3692C56 51.0998 55.8759 50.8454 55.6636 50.6795ZM18.6478 28.0023C18.6478 23.2396 22.5226 19.3648 27.2853 19.3648C32.0481 19.3648 35.9229 23.2396 35.9229 28.0023C35.9229 32.7651 32.0481 36.6399 27.2853 36.6399C22.5226 36.6398 18.6478 32.765 18.6478 28.0023ZM20.3978 28.0023C20.3978 31.8002 23.4875 34.8899 27.2853 34.8899C31.0832 34.8899 34.1729 31.8002 34.1729 28.0023C34.1729 24.2045 31.0832 21.1148 27.2853 21.1148C23.4875 21.1147 20.3978 24.2044 20.3978 28.0023ZM19.7177 15.8317C21.0544 14.998 22.5014 14.3982 24.0312 14.0435L24.8838 11.8286C25.0138 11.4909 25.3384 11.268 25.7004 11.268H28.8701C29.2321 11.268 29.5566 11.4909 29.6867 11.8286L30.5392 14.0435C32.0691 14.3982 33.5161 14.9981 34.8528 15.8317L37.0237 14.8677C37.3545 14.7209 37.7415 14.7927 37.9975 15.0487L40.239 17.29C40.4949 17.546 40.5669 17.933 40.4199 18.2639L39.4562 20.4339C40.2898 21.77 40.8897 23.2176 41.2448 24.7486L43.459 25.6009C43.7968 25.7308 44.0196 26.0555 44.0196 26.4175V29.5873C44.0196 29.9493 43.7967 30.2738 43.459 30.4039L41.2441 31.2565C40.8893 32.7863 40.2895 34.2333 39.4557 35.57L40.4199 37.7409C40.5667 38.0716 40.4949 38.4588 40.2388 38.7147L37.9975 40.9562C37.7416 41.2121 37.3545 41.2841 37.0237 41.1372L34.8537 40.1734C33.5174 41.007 32.07 41.607 30.539 41.962L29.6868 44.1762C29.5568 44.514 29.2322 44.7368 28.8702 44.7368H25.7004C25.3385 44.7368 25.0138 44.5139 24.8838 44.1762L24.0312 41.9613C22.5014 41.6066 21.0544 41.0067 19.7177 40.173L17.5468 41.1372C17.2161 41.2842 16.829 41.2123 16.5729 40.9562L14.3315 38.7148C14.0756 38.4589 14.0036 38.0718 14.1506 37.741L15.1144 35.571C14.2808 34.2348 13.6808 32.7874 13.3258 31.2563L11.1115 30.4041C10.7737 30.2742 10.5509 29.9495 10.5509 29.5875V26.4174C10.5509 26.0553 10.7738 25.7308 11.1115 25.6008L13.3263 24.7483C13.681 23.2179 14.2809 21.7709 15.1146 20.4345L14.1506 18.2638C14.0037 17.933 14.0756 17.5459 14.3316 17.2899L16.573 15.0486C16.8289 14.7926 17.2162 14.7208 17.5469 14.8676L19.7177 15.8317ZM19.4402 17.6233L17.3856 16.7108L15.9938 18.1026L16.9062 20.157C17.0283 20.4318 17.0006 20.7502 16.8329 20.9999C15.8992 22.3905 15.2627 23.9258 14.9412 25.5634C14.8832 25.8586 14.6777 26.1034 14.3968 26.2113L12.3007 27.0181V28.9864L14.3964 29.793C14.6771 29.9011 14.8827 30.1457 14.9407 30.441C15.2625 32.0795 15.8991 33.6151 16.8327 35.0052C17.0005 35.2549 17.0282 35.5733 16.906 35.8481L15.9938 37.902L17.3856 39.2938L19.4402 38.3812C19.7151 38.2592 20.0332 38.2868 20.283 38.4544C21.674 39.3882 23.2093 40.0246 24.8463 40.3462C25.1415 40.4041 25.3862 40.6097 25.4942 40.8904L26.3012 42.9867H28.2694L29.076 40.8912C29.1841 40.6104 29.4288 40.4049 29.724 40.3468C31.3624 40.025 32.898 39.3885 34.2882 38.4549C34.5379 38.2871 34.8563 38.2595 35.1311 38.3816L37.185 39.2938L38.5768 37.902L37.6643 35.8474C37.5422 35.5725 37.5699 35.2542 37.7374 35.0045C38.6712 33.6136 39.3076 32.0783 39.6292 30.4413C39.6872 30.1461 39.8928 29.9014 40.1734 29.7933L42.2697 28.9865V27.0183L40.1742 26.2116C39.8934 26.1036 39.6879 25.8589 39.6298 25.5637C39.308 23.9253 38.6714 22.3895 37.7379 20.9994C37.5701 20.7497 37.5424 20.4313 37.6646 20.1564L38.5767 18.1027L37.1849 16.7109L35.1303 17.6234C34.8553 17.7454 34.5371 17.7178 34.2874 17.5502C32.8965 16.6165 31.3612 15.98 29.7242 15.6585C29.429 15.6005 29.1843 15.3949 29.0763 15.1142L28.2694 13.018H26.3012L25.4943 15.1142C25.3863 15.3949 25.1416 15.6005 24.8464 15.6585C23.2095 15.9799 21.6742 16.6164 20.2832 17.5502C20.0332 17.7178 19.715 17.7452 19.4402 17.6233Z"
        fill="#012760"
      />
    </g>
    <defs>
      <clipPath id="clip0_5_1412">
        <rect width="56" height="56" fill="white" />
      </clipPath>
    </defs>
  </svg>