<svg
    xmlns="http://www.w3.org/2000/svg"
    viewBox="0 0 56 56"
    fill="currentColor"
  >
    <path
      d="M23.2477 23.8734C21.7215 23.8734 20.244 23.3282 19.0869 22.3385C17.6532 21.119 16.8302 19.3389 16.8302 17.4557C16.8302 13.9169 19.7091 11.038 23.2479 11.038C26.7867 11.038 29.6652 13.9171 29.6652 17.4559C29.6652 19.3375 28.8422 21.1176 27.4066 22.3399C26.2537 23.3284 24.7757 23.8734 23.2477 23.8734ZM23.2477 12.9049C20.7385 12.9049 18.6967 14.9465 18.6967 17.4559C18.6967 18.7906 19.2805 20.0525 20.2982 20.9185C21.9417 22.324 24.5611 22.3207 26.1941 20.9208C27.215 20.0517 27.7987 18.7892 27.7987 17.4559C27.7985 14.9465 25.7569 12.9049 23.2477 12.9049Z"
      fill="#012760"
    />
    <path
      d="M31.8606 32.5942H29.9939V27.4153C29.9939 25.3695 28.7908 23.5293 26.9536 22.6936C24.7971 24.2231 21.6932 24.2206 19.5426 22.6941C17.7059 23.53 16.5033 25.3697 16.5033 27.4155V32.5944H14.6367V27.4155C14.6367 24.4095 16.5466 21.7299 19.3895 20.7472C19.7039 20.641 20.05 20.7048 20.3019 20.921C21.9347 22.3206 24.5557 22.3228 26.1958 20.9204C26.4464 20.7048 26.7933 20.6398 27.1074 20.7472C29.9502 21.7294 31.8606 24.409 31.8606 27.4155V32.5942Z"
      fill="#012760"
    />
    <path
      d="M7.65209 34.501C5.08864 31.0685 3.73318 26.9842 3.73318 22.6899C3.73318 11.7979 12.594 2.93677 23.4854 2.93677C25.7865 2.93677 28.0401 3.32871 30.1832 4.10199L29.5498 5.85791C27.6102 5.15783 25.5698 4.80328 23.4854 4.80328C13.6234 4.80328 5.59987 12.8273 5.59987 22.6897C5.59987 26.5785 6.82665 30.2763 9.1477 33.3835L7.65209 34.501Z"
      fill="#012760"
    />
    <path
      d="M27.2431 42.0843L26.8903 40.2513C35.2816 38.6343 41.372 31.2485 41.372 22.6888C41.372 21.7514 41.2981 20.8067 41.1528 19.8816L42.9967 19.5917C43.1572 20.6126 43.2387 21.6544 43.2387 22.6888C43.2387 32.1417 36.5117 40.2988 27.2431 42.0843Z"
      fill="#012760"
    />
    <path
      d="M35.6939 37.2108L37.0135 35.8912L41.9656 40.8433L40.646 42.1629L35.6939 37.2108Z"
      fill="#012760"
    />
    <path
      d="M45.6062 53.0634L38.8527 46.3094C38.3638 45.8208 38.0944 45.171 38.0944 44.4793C38.0944 43.7875 38.3638 43.1375 38.8527 42.6486L42.4543 39.0474C43.4333 38.0694 45.1376 38.0694 46.1157 39.0474L53.8599 46.7916L52.5401 48.1114L44.7955 40.3672C44.5222 40.0938 44.0476 40.0942 43.7743 40.3677L40.1727 43.9689C40.0361 44.1056 39.9613 44.2869 39.9613 44.4793C39.9613 44.6716 40.0361 44.8529 40.1727 44.9896L46.9262 51.7436L45.6062 53.0634Z"
      fill="#012760"
    />
    <path
      d="M55.0667 17.8701H32.6667C32.1513 17.8701 31.7335 17.4522 31.7335 16.9368V5.73672C31.7335 5.22132 32.1513 4.80347 32.6667 4.80347H55.0667C55.5821 4.80347 56 5.22132 56 5.73672V16.9367C56 17.4522 55.5821 17.8701 55.0667 17.8701ZM33.6 16.0034H54.1333V6.66998H33.6V16.0034Z"
      fill="#012760"
    />
    <path
      d="M35.4667 8.53668H52.2667V10.4034H35.4667V8.53668Z"
      fill="#012760"
    />
    <path d="M35.4667 12.27H44.8001V14.1367H35.4667V12.27Z" fill="#012760" />
    <path d="M46.6667 12.27H52.2668V14.1367H46.6667V12.27Z" fill="#012760" />
    <path
      d="M23.3333 48.6701H0.933255C0.417852 48.6701 0 48.2526 0 47.7369V36.537C0 36.0215 0.417852 35.6037 0.933255 35.6037H23.3333C23.8487 35.6037 24.2665 36.0215 24.2665 36.537V47.7369C24.2667 48.2526 23.8489 48.6701 23.3333 48.6701ZM1.86668 46.8035H22.4V37.47H1.86668V46.8035Z"
      fill="#012760"
    />
    <path
      d="M3.73337 39.3367H20.5333V41.2034H3.73337V39.3367Z"
      fill="#012760"
    />
    <path
      d="M3.73337 43.0701H13.0668V44.9368H3.73337V43.0701Z"
      fill="#012760"
    />
    <path
      d="M14.9333 43.0701H20.5333V44.9368H14.9333V43.0701Z"
      fill="#012760"
    />
  </svg>