<svg
    xmlns="http://www.w3.org/2000/svg"
    viewBox="0 0 56 56"
    fill="currentColor"
  >
    <path
      d="M47.9489 25.1244C47.8532 25.1243 47.7585 25.106 47.6696 25.0706L41.9637 22.8004C41.8258 22.7457 41.7071 22.6517 41.6222 22.5301C41.5373 22.4084 41.49 22.2645 41.4862 22.1163C41.4824 21.968 41.5223 21.8219 41.6009 21.6961C41.6794 21.5703 41.7932 21.4704 41.9281 21.4087C42.4891 21.1505 42.9297 20.6871 43.1593 20.1139C43.2759 19.8204 43.3334 19.5068 43.3286 19.1911C43.3239 18.8753 43.2569 18.5636 43.1316 18.2738C43.0063 17.9839 42.8251 17.7216 42.5983 17.5018C42.3715 17.2821 42.1037 17.1092 41.81 16.993C41.2177 16.7574 40.5561 16.7664 39.9704 17.0181C39.3848 17.2698 38.9229 17.7436 38.6862 18.3355C38.5703 18.6177 38.5113 18.9199 38.5123 19.2249C38.5134 19.5299 38.5745 19.8317 38.6922 20.1131C38.7509 20.2506 38.7676 20.4023 38.7401 20.5492C38.7127 20.6961 38.6424 20.8316 38.5381 20.9386C38.4337 21.0456 38.3001 21.1193 38.1539 21.1505C38.0077 21.1816 37.8556 21.1688 37.7168 21.1136L31.9889 18.8372C31.8964 18.8005 31.812 18.746 31.7407 18.6766C31.6693 18.6073 31.6123 18.5246 31.573 18.4332C31.5336 18.3418 31.5126 18.2436 31.5113 18.1441C31.5099 18.0446 31.5282 17.9459 31.5651 17.8534L33.3298 13.4151C32.8372 13.4123 32.3495 13.3171 31.892 13.1343C31.3582 12.92 30.8782 12.5907 30.486 12.17C30.0938 11.7492 29.7991 11.2473 29.6228 10.6998C29.4464 10.1523 29.3928 9.57266 29.4657 9.00211C29.5387 8.43156 29.7363 7.88406 30.0447 7.3985C30.353 6.91294 30.7645 6.50124 31.2499 6.19264C31.7353 5.88403 32.2827 5.68609 32.8532 5.61288C33.4237 5.53967 34.0034 5.59298 34.551 5.76903C35.0985 5.94507 35.6007 6.23954 36.0216 6.6315L37.7909 2.18707C37.8277 2.09466 37.8823 2.0104 37.9517 1.93912C38.021 1.86783 38.1037 1.81092 38.1951 1.77163C38.2865 1.73234 38.3847 1.71145 38.4842 1.71015C38.5836 1.70885 38.6823 1.72716 38.7747 1.76404L53.0713 7.44653C53.6241 7.66704 54.0669 8.0977 54.3026 8.64412C54.5384 9.19054 54.5479 9.80814 54.3291 10.3616L48.6534 24.6423C48.5981 24.7842 48.5013 24.9062 48.3756 24.9922C48.2499 25.0782 48.1012 25.1242 47.9489 25.1244ZM43.7867 21.8991L47.5243 23.3838L52.9207 9.8061C52.9896 9.62565 52.9854 9.42546 52.9089 9.2481C52.8325 9.07073 52.6898 8.93019 52.5113 8.85637L38.9185 3.4501L36.9297 8.46361C36.8749 8.60193 36.7805 8.72102 36.6584 8.806C36.5363 8.89097 36.3918 8.93806 36.243 8.94137C36.0943 8.94468 35.9479 8.90407 35.8221 8.82462C35.6963 8.74516 35.5967 8.63038 35.5358 8.49464C35.3401 8.06596 35.0228 7.70423 34.6232 7.4544C34.2237 7.20458 33.7595 7.07769 33.2884 7.08948C32.8174 7.10128 32.3601 7.25126 31.9736 7.52077C31.587 7.79028 31.2882 8.16744 31.1142 8.60538C30.9403 9.04332 30.8988 9.52273 30.9951 9.98402C31.0913 10.4453 31.321 10.8681 31.6556 11.2C31.9902 11.5318 32.4149 11.758 32.877 11.8504C33.3391 11.9429 33.8181 11.8975 34.2546 11.7199C34.392 11.6634 34.543 11.6485 34.6888 11.6772C34.8346 11.7059 34.9688 11.7769 35.0745 11.8813C35.1802 11.9858 35.2528 12.119 35.2833 12.2644C35.3138 12.4099 35.3008 12.5611 35.2459 12.6992L33.2511 17.7082L36.9986 19.1982C37.0012 18.5589 37.1599 17.9299 37.4609 17.3659C37.7619 16.802 38.1962 16.3201 38.7259 15.9622C39.2556 15.6042 39.8648 15.3811 40.5003 15.3123C41.1359 15.2434 41.7787 15.3309 42.3728 15.567C42.9669 15.8032 43.4943 16.1809 43.9091 16.6673C44.324 17.1537 44.6137 17.7341 44.7531 18.358C44.8926 18.9819 44.8775 19.6304 44.7092 20.2472C44.5409 20.8639 44.2245 21.4302 43.7875 21.8968L43.7867 21.8991Z"
      fill="#012760"
    />
    <path
      d="M45.3298 32.7456C45.2304 32.746 45.1319 32.7269 45.0399 32.6893C44.9479 32.6517 44.8642 32.5963 44.7936 32.5263C44.7231 32.4564 44.6669 32.3732 44.6285 32.2816C44.5901 32.1899 44.57 32.0916 44.5696 31.9922C44.5691 31.8928 44.5883 31.7943 44.6259 31.7024C44.6635 31.6104 44.7189 31.5267 44.7888 31.4561C44.8588 31.3855 44.942 31.3294 45.0336 31.291C45.1252 31.2525 45.2236 31.2325 45.3229 31.2321H45.3298C45.5305 31.2321 45.7229 31.3118 45.8649 31.4537C46.0068 31.5956 46.0865 31.7881 46.0865 31.9888C46.0865 32.1895 46.0068 32.382 45.8649 32.5239C45.7229 32.6658 45.5305 32.7456 45.3298 32.7456Z"
      fill="#012760"
    />
    <path
      d="M37.4814 32.7456C37.2807 32.7466 37.0878 32.6678 36.9452 32.5266C36.8025 32.3854 36.7218 32.1933 36.7208 31.9926C36.7198 31.7919 36.7986 31.599 36.9398 31.4564C37.081 31.3138 37.2731 31.2331 37.4738 31.2321H37.4814C37.6821 31.2321 37.8746 31.3118 38.0165 31.4537C38.1584 31.5956 38.2381 31.7881 38.2381 31.9888C38.2381 32.1895 38.1584 32.382 38.0165 32.5239C37.8746 32.6658 37.6821 32.7456 37.4814 32.7456Z"
      fill="#012760"
    />
    <path
      d="M37.4738 32.7494C37.2739 32.7494 37.0821 32.6703 36.9403 32.5293C36.7985 32.3884 36.7183 32.1971 36.7171 31.9972C36.7162 31.8605 36.7523 31.7262 36.8216 31.6084C36.8909 31.4907 36.9908 31.3938 37.1107 31.3283C37.2306 31.2627 37.366 31.2308 37.5025 31.236C37.6391 31.2412 37.7717 31.2833 37.8862 31.3577C38.0008 31.4322 38.0931 31.5363 38.1532 31.659C38.2134 31.7817 38.2392 31.9184 38.228 32.0545C38.2167 32.1907 38.1688 32.3213 38.0893 32.4324C38.0098 32.5436 37.9017 32.6311 37.7765 32.6858C37.6812 32.728 37.5781 32.7497 37.4738 32.7494Z"
      fill="#012760"
    />
    <path
      d="M43.4144 54.2897H4.1826C3.47583 54.2899 2.79786 54.0097 2.29746 53.5106C1.79706 53.0115 1.51512 52.3342 1.51352 51.6274V12.3888C1.51632 11.6831 1.79889 11.0074 2.29924 10.5097C2.7996 10.012 3.4769 9.73313 4.1826 9.73413H23.7909C23.9916 9.73413 24.1841 9.81386 24.326 9.95578C24.468 10.0977 24.5477 10.2902 24.5477 10.4909V18.3369C24.5483 18.4862 24.5047 18.6323 24.4224 18.7569C24.3401 18.8815 24.2229 18.9789 24.0854 19.037C23.9478 19.0951 23.7962 19.1112 23.6496 19.0833C23.5029 19.0554 23.3678 18.9848 23.2612 18.8803C22.6525 18.2916 21.8377 17.9643 20.9909 17.9684C20.1223 17.9684 19.2892 18.3135 18.675 18.9277C18.0608 19.5419 17.7157 20.375 17.7157 21.2436C17.7157 22.1123 18.0608 22.9454 18.675 23.5596C19.2892 24.1738 20.1223 24.5189 20.9909 24.5189C21.8372 24.524 22.6519 24.1981 23.2612 23.6108C23.3678 23.5063 23.5029 23.4357 23.6496 23.4078C23.7962 23.3799 23.9478 23.396 24.0854 23.4541C24.2229 23.5122 24.3401 23.6096 24.4224 23.7342C24.5047 23.8587 24.5483 24.0049 24.5477 24.1541V31.2359H30.2158C29.8729 30.5048 29.72 29.699 29.7715 28.8931C29.8229 28.0872 30.077 27.3073 30.5101 26.6258C30.9432 25.9443 31.5413 25.3831 32.2491 24.9943C32.9568 24.6055 33.7513 24.4016 34.5588 24.4016C35.3663 24.4016 36.1608 24.6055 36.8685 24.9943C37.5763 25.3831 38.1744 25.9443 38.6076 26.6258C39.0407 27.3073 39.2947 28.0872 39.3462 28.8931C39.3976 29.699 39.2448 30.5048 38.9018 31.2359H45.3123C45.513 31.2359 45.7055 31.3156 45.8474 31.4575C45.9894 31.5994 46.0691 31.7919 46.0691 31.9926V51.6274C46.0695 52.3323 45.7902 53.0086 45.2924 53.5077C44.7947 54.0069 44.1193 54.2881 43.4144 54.2897ZM4.1826 11.2476C3.87818 11.2462 3.58561 11.3656 3.36901 11.5795C3.15241 11.7934 3.02943 12.0844 3.02703 12.3888V51.6274C3.02843 51.9328 3.15085 52.2253 3.36745 52.4406C3.58405 52.6559 3.87718 52.7766 4.1826 52.7762H43.4144C43.7179 52.7748 44.0085 52.6531 44.2225 52.4377C44.4364 52.2224 44.5562 51.931 44.5556 51.6274V32.7456H37.4814C37.3332 32.7455 37.1884 32.7018 37.0648 32.6201C36.9412 32.5384 36.8443 32.4223 36.7861 32.286C36.7279 32.1497 36.711 31.9994 36.7375 31.8536C36.764 31.7078 36.8326 31.573 36.935 31.4659C37.3032 31.078 37.5708 30.6059 37.7145 30.0907C37.8581 29.5756 37.8734 29.0331 37.759 28.5107C37.6447 27.9882 37.4041 27.5017 37.0584 27.0937C36.7127 26.6857 36.2723 26.3685 35.7757 26.17C35.2791 25.9714 34.7415 25.8974 34.2097 25.9546C33.678 26.0117 33.1683 26.1981 32.7252 26.4977C32.2822 26.7972 31.9192 27.2007 31.668 27.6728C31.4169 28.145 31.2851 28.6714 31.2843 29.2062C31.2768 30.0471 31.6035 30.8566 32.1924 31.4568C32.2966 31.5631 32.3671 31.6978 32.3952 31.8439C32.4233 31.9901 32.4076 32.1413 32.3502 32.2786C32.2927 32.4159 32.1961 32.5332 32.0724 32.6159C31.9486 32.6985 31.8032 32.7429 31.6544 32.7433H23.7909C23.5902 32.7433 23.3977 32.6636 23.2558 32.5217C23.1139 32.3798 23.0342 32.1873 23.0342 31.9866V25.5783C22.3044 25.9197 21.5003 26.0714 20.6963 26.0194C19.8923 25.9674 19.1144 25.7134 18.4347 25.2809C17.7549 24.8484 17.1953 24.2514 16.8075 23.5452C16.4198 22.8389 16.2165 22.0463 16.2165 21.2406C16.2165 20.4349 16.4198 19.6423 16.8075 18.9361C17.1953 18.2298 17.7549 17.6328 18.4347 17.2003C19.1144 16.7678 19.8923 16.5138 20.6963 16.4618C21.5003 16.4099 22.3044 16.5616 23.0342 16.9029V11.2476H4.1826Z"
      fill="#012760"
    />
    <path
      d="M23.7985 40.6037C23.5978 40.6037 23.4053 40.524 23.2634 40.3821C23.1215 40.2402 23.0417 40.0477 23.0417 39.847V31.9971C23.0412 31.8978 23.0602 31.7992 23.0977 31.7072C23.1353 31.6152 23.1905 31.5315 23.2604 31.4608C23.4016 31.3181 23.5936 31.2373 23.7943 31.2362C23.995 31.2351 24.188 31.3138 24.3307 31.4549C24.4734 31.5961 24.5541 31.7881 24.5552 31.9888V39.8432C24.5557 39.9429 24.5365 40.0417 24.4987 40.134C24.4609 40.2262 24.4053 40.3101 24.3349 40.3807C24.2646 40.4514 24.181 40.5075 24.089 40.5458C23.9969 40.584 23.8982 40.6037 23.7985 40.6037Z"
      fill="#012760"
    />
    <path
      d="M23.8038 54.2595C23.6031 54.2595 23.4106 54.1798 23.2687 54.0378C23.1268 53.8959 23.047 53.7034 23.047 53.5027V45.6446C23.047 45.4439 23.1268 45.2514 23.2687 45.1095C23.4106 44.9675 23.6031 44.8878 23.8038 44.8878C24.0045 44.8878 24.197 44.9675 24.3389 45.1095C24.4808 45.2514 24.5605 45.4439 24.5605 45.6446V53.5027C24.5605 53.7034 24.4808 53.8959 24.3389 54.0378C24.197 54.1798 24.0045 54.2595 23.8038 54.2595Z"
      fill="#012760"
    />
    <path
      d="M23.7985 32.7456H15.9676C15.7669 32.7456 15.5744 32.6658 15.4325 32.5239C15.2905 32.382 15.2108 32.1895 15.2108 31.9888C15.2108 31.7881 15.2905 31.5956 15.4325 31.4537C15.5744 31.3118 15.7669 31.2321 15.9676 31.2321H23.7985C23.9992 31.2321 24.1917 31.3118 24.3336 31.4537C24.4755 31.5956 24.5552 31.7881 24.5552 31.9888C24.5552 32.1895 24.4755 32.382 24.3336 32.5239C24.1917 32.6658 23.9992 32.7456 23.7985 32.7456Z"
      fill="#012760"
    />
    <path
      d="M10.1519 32.7502H2.29146C2.09075 32.7502 1.89827 32.6705 1.75635 32.5286C1.61443 32.3866 1.5347 32.1942 1.5347 31.9935C1.5347 31.7927 1.61443 31.6003 1.75635 31.4583C1.89827 31.3164 2.09075 31.2367 2.29146 31.2367H10.1519C10.3526 31.2367 10.5451 31.3164 10.687 31.4583C10.8289 31.6003 10.9086 31.7927 10.9086 31.9935C10.9086 32.1942 10.8289 32.3866 10.687 32.5286C10.5451 32.6705 10.3526 32.7502 10.1519 32.7502Z"
      fill="#012760"
    />
    <path
      d="M13.0442 39.5852C12.1036 39.5855 11.1838 39.3085 10.3997 38.789C9.6156 38.2694 9.00204 37.5302 8.63569 36.6639C8.26934 35.7976 8.16645 34.8425 8.33989 33.918C8.51332 32.9935 8.95538 32.1406 9.61082 31.466C9.75123 31.3244 9.94183 31.244 10.1412 31.2422C10.3406 31.2404 10.5326 31.3173 10.6756 31.4563C10.8185 31.5953 10.9009 31.785 10.9047 31.9844C10.9085 32.1837 10.8335 32.3765 10.696 32.5209C10.2481 32.9821 9.94594 33.565 9.82737 34.1969C9.7088 34.8288 9.77904 35.4816 10.0293 36.0738C10.2796 36.666 10.6988 37.1713 11.2346 37.5266C11.7704 37.882 12.399 38.0716 13.042 38.0717C13.9112 38.0717 14.7449 37.7268 15.36 37.1128C15.9752 36.4987 16.3217 35.6657 16.3233 34.7965C16.3293 33.9486 16.0002 33.1326 15.4076 32.5262C15.3333 32.4564 15.2738 32.3723 15.2328 32.2789C15.1919 32.1856 15.1701 32.0849 15.169 31.983C15.1679 31.881 15.1874 31.7799 15.2263 31.6857C15.2653 31.5915 15.3228 31.5061 15.3956 31.4346C15.4683 31.3632 15.5548 31.3072 15.6497 31.27C15.7446 31.2329 15.8461 31.2152 15.948 31.2182C16.0499 31.2212 16.1501 31.2448 16.2427 31.2875C16.3353 31.3302 16.4183 31.3912 16.4867 31.4667C17.3586 32.3565 17.8438 33.5545 17.8368 34.8002C17.8336 36.0696 17.3274 37.286 16.4291 38.1829C15.5308 39.0797 14.3136 39.584 13.0442 39.5852Z"
      fill="#012760"
    />
    <path
      d="M26.6076 47.547C25.364 47.5474 24.1693 47.0625 23.2779 46.1954C23.2033 46.1272 23.1432 46.0447 23.101 45.9529C23.0589 45.8611 23.0356 45.7617 23.0324 45.6607C23.0293 45.5597 23.0464 45.4591 23.0827 45.3649C23.1191 45.2706 23.174 45.1846 23.2441 45.1118C23.3143 45.0391 23.3983 44.9812 23.4912 44.9414C23.5841 44.9017 23.684 44.881 23.785 44.8805C23.8861 44.88 23.9862 44.8997 24.0795 44.9385C24.1728 44.9773 24.2574 45.0344 24.3282 45.1065C24.7894 45.5507 25.3709 45.8498 26.0004 45.9668C26.63 46.0838 27.2801 46.0135 27.8701 45.7646C28.4601 45.5157 28.9641 45.0991 29.3197 44.5665C29.6752 44.034 29.8667 43.4088 29.8704 42.7684C29.8741 42.1281 29.6898 41.5008 29.3404 40.9641C28.9909 40.4275 28.4918 40.0052 27.9047 39.7495C27.3176 39.4939 26.6683 39.4161 26.0375 39.5258C25.4066 39.6356 24.8218 39.928 24.3555 40.3669C24.252 40.4774 24.1177 40.5544 23.97 40.5878C23.8222 40.6212 23.6679 40.6095 23.5269 40.5543C23.3859 40.499 23.2647 40.4027 23.179 40.2778C23.0934 40.153 23.0471 40.0052 23.0463 39.8538V39.847C23.0464 39.7454 23.0669 39.6449 23.1067 39.5514C23.1465 39.4579 23.2047 39.3734 23.2779 39.3029C23.8426 38.7589 24.5322 38.3617 25.2862 38.1463C26.0401 37.9309 26.8355 37.9038 27.6024 38.0673C28.3693 38.2309 29.0843 38.5801 29.6848 39.0844C30.2853 39.5886 30.7529 40.2326 31.0465 40.9597C31.3402 41.6867 31.451 42.4748 31.3691 43.2546C31.2873 44.0345 31.0154 44.7824 30.5772 45.4326C30.139 46.0829 29.5479 46.6158 28.8558 46.9844C28.1637 47.353 27.3917 47.5462 26.6076 47.547Z"
      fill="#012760"
    />
  </svg>